<svg xmlns="http://www.w3.org/2000/svg" xmlns:xlink="http://www.w3.org/1999/xlink" width="500" zoomAndPan="magnify" viewBox="0 0 375 374.999991" height="500" preserveAspectRatio="xMidYMid meet" version="1.0"><defs><clipPath id="c331af0818"><path d="M 114.171875 121.6875 L 261.171875 121.6875 L 261.171875 252.9375 L 114.171875 252.9375 Z M 114.171875 121.6875 " clip-rule="nonzero"/></clipPath><clipPath id="6f23c90f73"><path d="M 166.535156 167.199219 L 187.585938 167.199219 L 187.585938 188.25 L 166.535156 188.25 Z M 166.535156 167.199219 " clip-rule="nonzero"/></clipPath><clipPath id="2f7686eeb0"><path d="M 177.0625 167.199219 C 171.25 167.199219 166.535156 171.914062 166.535156 177.726562 C 166.535156 183.539062 171.25 188.25 177.0625 188.25 C 182.875 188.25 187.585938 183.539062 187.585938 177.726562 C 187.585938 171.914062 182.875 167.199219 177.0625 167.199219 Z M 177.0625 167.199219 " clip-rule="nonzero"/></clipPath><clipPath id="0b7042c24a"><path d="M 0.535156 0.199219 L 21.585938 0.199219 L 21.585938 21.25 L 0.535156 21.25 Z M 0.535156 0.199219 " clip-rule="nonzero"/></clipPath><clipPath id="a3a3c3e6df"><path d="M 11.0625 0.199219 C 5.25 0.199219 0.535156 4.914062 0.535156 10.726562 C 0.535156 16.539062 5.25 21.25 11.0625 21.25 C 16.875 21.25 21.585938 16.539062 21.585938 10.726562 C 21.585938 4.914062 16.875 0.199219 11.0625 0.199219 Z M 11.0625 0.199219 " clip-rule="nonzero"/></clipPath><clipPath id="27abcdc285"><rect x="0" width="22" y="0" height="22"/></clipPath><clipPath id="4a216c7d6a"><path d="M 167.285156 204.273438 L 188.335938 204.273438 L 188.335938 225.320312 L 167.285156 225.320312 Z M 167.285156 204.273438 " clip-rule="nonzero"/></clipPath><clipPath id="b54c845cf9"><path d="M 177.8125 204.273438 C 172 204.273438 167.285156 208.984375 167.285156 214.796875 C 167.285156 220.609375 172 225.320312 177.8125 225.320312 C 183.625 225.320312 188.335938 220.609375 188.335938 214.796875 C 188.335938 208.984375 183.625 204.273438 177.8125 204.273438 Z M 177.8125 204.273438 " clip-rule="nonzero"/></clipPath><clipPath id="2e1b39d784"><path d="M 0.285156 0.273438 L 21.335938 0.273438 L 21.335938 21.320312 L 0.285156 21.320312 Z M 0.285156 0.273438 " clip-rule="nonzero"/></clipPath><clipPath id="3bc376b956"><path d="M 10.8125 0.273438 C 5 0.273438 0.285156 4.984375 0.285156 10.796875 C 0.285156 16.609375 5 21.320312 10.8125 21.320312 C 16.625 21.320312 21.335938 16.609375 21.335938 10.796875 C 21.335938 4.984375 16.625 0.273438 10.8125 0.273438 Z M 10.8125 0.273438 " clip-rule="nonzero"/></clipPath><clipPath id="22e4173ba9"><rect x="0" width="22" y="0" height="22"/></clipPath><clipPath id="92f228cbf0"><path d="M 184.484375 186 L 205.535156 186 L 205.535156 207.050781 L 184.484375 207.050781 Z M 184.484375 186 " clip-rule="nonzero"/></clipPath><clipPath id="0ec1fbea5d"><path d="M 195.011719 186 C 189.195312 186 184.484375 190.710938 184.484375 196.523438 C 184.484375 202.335938 189.195312 207.050781 195.011719 207.050781 C 200.824219 207.050781 205.535156 202.335938 205.535156 196.523438 C 205.535156 190.710938 200.824219 186 195.011719 186 Z M 195.011719 186 " clip-rule="nonzero"/></clipPath><clipPath id="68ae23cef1"><path d="M 0.484375 0 L 21.535156 0 L 21.535156 21.050781 L 0.484375 21.050781 Z M 0.484375 0 " clip-rule="nonzero"/></clipPath><clipPath id="94f225803f"><path d="M 11.011719 0 C 5.195312 0 0.484375 4.710938 0.484375 10.523438 C 0.484375 16.335938 5.195312 21.050781 11.011719 21.050781 C 16.824219 21.050781 21.535156 16.335938 21.535156 10.523438 C 21.535156 4.710938 16.824219 0 11.011719 0 Z M 11.011719 0 " clip-rule="nonzero"/></clipPath><clipPath id="41be8cc22d"><rect x="0" width="22" y="0" height="22"/></clipPath></defs><rect x="-37.5" width="450" fill="#ffffff" y="-37.499999" height="449.999989" fill-opacity="1"/><rect x="-37.5" width="450" fill="#141034" y="-37.499999" height="449.999989" fill-opacity="1"/><g clip-path="url(#c331af0818)"><path fill="#14b7dc" d="M 183.976562 206.730469 L 187.410156 202.851562 C 189.039062 204.820312 191.308594 206.09375 193.984375 206.441406 L 193.984375 225.59375 L 175.25 236.242188 L 156.578125 247.007812 L 119.234375 225.59375 L 119.234375 182.652344 L 129.527344 176.691406 L 129.527344 170.90625 L 114.171875 179.761719 L 114.171875 228.488281 L 156.578125 252.851562 L 198.984375 228.488281 L 198.984375 205.746094 C 202.652344 204.242188 205.152344 200.652344 205.152344 196.484375 C 205.152344 190.988281 200.613281 186.472656 195.089844 186.472656 C 191.832031 186.472656 188.921875 187.976562 187.0625 190.351562 L 183.570312 186.359375 C 186.070312 184.679688 187.640625 181.960938 187.933594 178.890625 L 200.148438 171.832031 L 218.824219 161.125 L 256.167969 182.539062 L 256.167969 225.480469 L 237.4375 236.242188 L 218.765625 246.949219 L 200.089844 236.242188 L 197.183594 234.625 L 192.121094 237.515625 L 218.765625 252.796875 L 261.171875 228.429688 L 261.171875 179.703125 L 218.765625 155.339844 L 186.828125 173.683594 C 185.199219 170.386719 181.765625 168.070312 177.8125 168.070312 C 172.285156 168.070312 167.746094 172.585938 167.746094 178.082031 C 167.746094 183.40625 171.996094 187.863281 177.402344 188.09375 L 177.402344 204.703125 C 173.796875 204.875 170.773438 206.84375 169.027344 209.796875 L 156.460938 202.5625 L 137.789062 191.855469 L 137.789062 148.914062 L 156.460938 138.207031 L 175.136719 127.5 L 212.480469 148.914062 L 212.480469 155.105469 L 217.542969 152.214844 L 217.542969 146.019531 L 175.195312 121.773438 L 132.785156 146.136719 L 132.785156 194.863281 L 167.746094 215.003906 C 167.804688 220.503906 172.285156 224.957031 177.8125 224.957031 C 183.335938 224.957031 187.875 220.445312 187.875 214.945312 C 187.992188 211.472656 186.363281 208.582031 183.976562 206.730469 Z M 186.886719 202.097656 L 183.28125 206.148438 C 181.824219 205.222656 180.195312 204.703125 178.394531 204.644531 L 178.394531 188.09375 C 180.023438 188.035156 181.535156 187.574219 182.929688 186.820312 L 186.710938 191.046875 C 185.664062 192.550781 185.199219 194.460938 185.199219 196.371094 C 185.082031 198.570312 185.78125 200.535156 186.886719 202.097656 Z M 186.886719 202.097656 " fill-opacity="1" fill-rule="evenodd"/></g><g clip-path="url(#6f23c90f73)"><g clip-path="url(#2f7686eeb0)"><g transform="matrix(1, 0, 0, 1, 166, 167)"><g clip-path="url(#27abcdc285)"><g clip-path="url(#0b7042c24a)"><g clip-path="url(#a3a3c3e6df)"><path fill="#6ee4ff" d="M 0.535156 0.199219 L 21.585938 0.199219 L 21.585938 21.25 L 0.535156 21.25 Z M 0.535156 0.199219 " fill-opacity="1" fill-rule="nonzero"/></g></g></g></g></g></g><g clip-path="url(#4a216c7d6a)"><g clip-path="url(#b54c845cf9)"><g transform="matrix(1, 0, 0, 1, 167, 204)"><g clip-path="url(#22e4173ba9)"><g clip-path="url(#2e1b39d784)"><g clip-path="url(#3bc376b956)"><path fill="#6ee4ff" d="M 0.285156 0.273438 L 21.335938 0.273438 L 21.335938 21.320312 L 0.285156 21.320312 Z M 0.285156 0.273438 " fill-opacity="1" fill-rule="nonzero"/></g></g></g></g></g></g><g clip-path="url(#92f228cbf0)"><g clip-path="url(#0ec1fbea5d)"><g transform="matrix(1, 0, 0, 1, 184, 186)"><g clip-path="url(#41be8cc22d)"><g clip-path="url(#68ae23cef1)"><g clip-path="url(#94f225803f)"><path fill="#6ee4ff" d="M 0.484375 0 L 21.535156 0 L 21.535156 21.050781 L 0.484375 21.050781 Z M 0.484375 0 " fill-opacity="1" fill-rule="nonzero"/></g></g></g></g></g></g></svg>